<svg width="3993" height="3723" viewBox="0 0 3993 3723" fill="none" xmlns="http://www.w3.org/2000/svg">
<path d="M1861.48 3593.5C906.47 3593.5 129.501 2816.52 129.501 1861.5C129.501 906.481 906.47 129.503 1861.48 129.503C2644.86 129.503 3308.32 652.365 3521.55 1367.38H3656.26C3439.26 580.018 2716.88 0 1861.48 0C835.046 0 0 835.056 0 1861.5C0 2887.94 835.046 3723 1861.48 3723C2733 3723 3466.48 3120.9 3668 2310.85H3534.21C3335.81 3048.71 2661.09 3593.54 1861.44 3593.54L1861.48 3593.5Z" fill="#FCFCFC"/>
<path fill-rule="evenodd" clip-rule="evenodd" d="M2345.17 1480.81H2180.08L2116.79 1714.92C2099 1780.78 2081.04 1846.67 2067.13 1913.49L2051.26 1989.96L2018.27 1919.18C1986.81 1851.72 1952.26 1785.79 1916.67 1720.45L1819.87 1536.56C1792.98 1485.46 1771.06 1468.86 1712.34 1468.86C1653.62 1468.86 1633.58 1486.94 1606.88 1536.72L1509.05 1719.37C1473.78 1785.23 1439.23 1851.52 1407.52 1919.22L1373.25 1992.37L1358.54 1912.96C1346.2 1846.15 1328.44 1780.46 1310.12 1715.08L1246.76 1480.81H1076.05L1251.29 2086.92C1265.39 2135.7 1300.26 2168.16 1352.49 2168.16C1399.95 2168.16 1431.17 2144.47 1453.86 2104.19L1570.17 1897.65C1609.97 1826.95 1651.73 1757.05 1684.24 1682.54L1706.85 1630.67L1731.34 1681.65C1766.89 1755.73 1807.49 1827.19 1847.93 1898.66L1964.25 2104.11C1987.05 2144.39 2018.07 2168.16 2065.61 2168.16C2117.92 2168.16 2152.55 2135.38 2166.85 2086.72L2345.13 1480.77L2345.17 1480.81ZM3992.26 1618.13V1480.81H3212.85V1618.13H3516.22V2156.26H3689.41V1618.13H3992.22H3992.26ZM2859.69 1480.81H2686.5V2156.26H2859.69V1480.81Z" fill="#FCFCFC"/>
</svg>
